<?xml version="1.0" standalone="no"?>
<!DOCTYPE svg PUBLIC "-//W3C//DTD SVG 20010904//EN"
 "http://www.w3.org/TR/2001/REC-SVG-20010904/DTD/svg10.dtd">
<svg version="1.0" xmlns="http://www.w3.org/2000/svg"
 width="200.000000pt" height="200.000000pt" viewBox="0 0 200.000000 200.000000"
 preserveAspectRatio="xMidYMid meet">
<metadata>
Created by potrace 1.11, written by Peter Selinger 2001-2013
</metadata>
<g transform="translate(0.000000,200.000000) scale(0.100000,-0.100000)"
fill="#000000" stroke="none">
<path d="M22 1990 l-22 -9 0 -991 0 -990 1000 0 1000 0 0 1000 0 1000 -977 -1
c-558 0 -988 -4 -1001 -9z m997 -111 c141 -22 209 -42 296 -85 183 -91 291
-189 347 -314 9 -19 25 -55 36 -80 54 -120 102 -414 73 -443 -6 -6 -11 -28
-11 -48 0 -21 -4 -41 -10 -44 -5 -3 -10 -15 -10 -27 0 -31 -76 -178 -117 -228
-42 -50 -119 -127 -149 -150 -49 -38 -135 -90 -148 -90 -8 0 -31 -9 -53 -19
-129 -64 -159 -69 -352 -52 -158 14 -191 22 -286 66 -38 18 -86 39 -106 46
-72 24 -232 202 -283 314 -10 22 -24 53 -32 69 -8 16 -14 37 -14 48 0 10 -4
18 -8 18 -11 0 -32 172 -32 260 0 41 8 104 16 140 8 36 19 84 24 108 21 94 73
177 174 274 39 37 76 68 81 68 6 0 21 12 34 25 13 14 29 25 35 25 7 0 21 8 32
18 28 25 91 52 159 68 99 22 136 32 142 38 10 9 89 7 162 -5z m-712 -1816 c-3
-10 -5 -2 -5 17 0 19 2 27 5 18 2 -10 2 -26 0 -35z m-130 15 c-3 -8 -6 -5 -6
6 -1 11 2 17 5 13 3 -3 4 -12 1 -19z m61 -12 c-11 -19 -13 -19 -16 -3 -2 9 -8
15 -13 12 -5 -4 -9 -2 -9 3 0 5 11 10 25 10 22 0 23 -3 13 -22z"/>
<path d="M777 1713 c-33 -5 -162 -72 -221 -114 -67 -48 -196 -182 -202 -209
-3 -14 -9 -33 -15 -42 -5 -10 -9 -33 -9 -52 0 -19 -4 -37 -9 -40 -22 -14 -36
-204 -21 -281 20 -100 35 -137 98 -247 36 -63 139 -178 160 -178 6 0 12 -4 12
-10 0 -5 9 -10 20 -10 11 0 20 -4 20 -10 0 -5 4 -10 10 -10 9 0 104 -40 142
-61 27 -14 331 -11 378 3 22 7 40 16 40 20 0 5 7 8 15 8 18 0 112 48 140 72
78 68 179 172 214 222 25 36 51 92 67 145 23 75 25 96 19 166 -7 85 -32 204
-46 220 -5 5 -9 16 -9 24 0 9 -16 48 -35 87 -50 100 -131 172 -265 235 -25 11
-53 25 -62 30 -10 5 -24 9 -32 9 -8 0 -16 6 -18 13 -4 9 -50 12 -184 13 -98 1
-192 0 -207 -3z m-40 -374 c45 -20 60 -20 268 -15 121 3 253 9 293 12 48 4 72
2 72 -5 0 -6 4 -11 10 -11 21 0 63 -47 86 -98 26 -58 32 -147 13 -185 -19 -35
-81 -88 -111 -94 -16 -3 -31 -10 -34 -14 -10 -16 -118 -10 -144 8 -39 27 -46
36 -60 78 -7 22 -16 48 -21 57 -5 10 -9 34 -9 53 0 20 -7 47 -16 60 -16 24
-21 25 -119 25 l-102 0 -5 -62 c-8 -93 -31 -141 -76 -160 -44 -19 -149 -30
-202 -22 -49 8 -80 36 -113 103 -20 42 -27 70 -27 116 0 55 3 65 33 98 66 76
168 97 264 56z m143 -559 c0 -6 60 -10 159 -10 88 0 166 -3 175 -6 22 -9 21
-73 -1 -90 -24 -18 -358 -19 -416 -2 -47 14 -72 57 -54 95 9 20 17 23 74 23
35 0 63 -4 63 -10z"/>
<path d="M612 1190 c-16 -27 -15 -56 4 -85 28 -43 72 -28 94 31 9 23 7 31 -11
51 -28 28 -70 30 -87 3z"/>
<path d="M1285 1188 c-56 -30 -71 -90 -32 -127 19 -17 29 -20 49 -12 34 13 58
53 58 96 0 29 -5 37 -26 45 -30 12 -24 12 -49 -2z"/>
</g>
</svg>
